# xmcd
#
# Track frame offsets:
#	182
#	19752
#	32230
#	47140
#	65172
#	77072
#	91330
#	107395
#	125320
#	142135
#	156330
#	172050
#	187025
#	196982
#	209175
#	222822
#	238467
#	249187
#
# Disc length: 3460 seconds
#
# Revision: 0
# Processed by: cddbd v1.4PL0 Copyright (c) Steve Scherf et al.
# Submitted via: EasyCDDAExtractor 4.6.0.1
#
DISCID=110d8212
DTITLE=Alpini - Canti Alpini
DYEAR=1900
DGENRE=
TTITLE0=Quel mazzolin di fiori
TTITLE1=Sul cappello
TTITLE2=Dove sei stato mio bell'Alpin
TTITLE3=Ta pum ta pum
TTITLE4=Vinassa vinassa
TTITLE5=Noi siamo alpini
TTITLE6=Montenero
TTITLE7=Era una notte che pioveva
TTITLE8=Monte Canino
TTITLE9=Il testamento del capitano
TTITLE10=Valsugana
TTITLE11=Sul Ponte di Bassano
TTITLE12=Bombardano Cortina
TTITLE13=La violetta
TTITLE14=Signore delle cime
TTITLE15=Bella ciao
TTITLE16=Emigrante
TTITLE17=E gira che te gira
EXTD=
EXTT0=
EXTT1=
EXTT2=
EXTT3=
EXTT4=
EXTT5=
EXTT6=
EXTT7=
EXTT8=
EXTT9=
EXTT10=
EXTT11=
EXTT12=
EXTT13=
EXTT14=
EXTT15=
EXTT16=
EXTT17=
PLAYORDER=
